<svg width="32" height="32" viewBox="0 0 32 32" fill="none" xmlns="http://www.w3.org/2000/svg">
<path opacity="0.5" fill-rule="evenodd" clip-rule="evenodd" d="M0 16C0 7.16344 7.16344 0 16 0C24.8366 0 32 7.16344 32 16C32 24.8366 24.8366 32 16 32C7.16344 32 0 24.8366 0 16Z" fill="#D9D9D9"/>
<path d="M22.8415 7.72433C21.1261 5.95853 18.755 5 16.3333 5C11.1874 5 7.05047 9.1874 7.10093 14.2829C7.10093 15.8973 7.555 17.4613 8.31173 18.8739L7 23.6667L11.8937 22.4054C13.2559 23.1621 14.7694 23.5153 16.2829 23.5153C21.3784 23.5153 25.5153 19.3279 25.5153 14.2324C25.5153 11.7603 24.5568 9.43967 22.8415 7.72433ZM16.3333 21.9513C14.9712 21.9513 13.609 21.5982 12.4487 20.8919L12.1459 20.7405L9.21987 21.4973L9.9766 18.6216L9.7748 18.3189C7.555 14.7369 8.6144 9.9946 12.2469 7.7748C15.8793 5.55495 20.5712 6.6144 22.791 10.2469C25.0108 13.8793 23.9514 18.5712 20.3189 20.791C19.1586 21.5477 17.7459 21.9513 16.3333 21.9513ZM20.773 16.3513L20.2181 16.0991C20.2181 16.0991 19.4108 15.7459 18.9063 15.4937C18.8559 15.4937 18.8054 15.4433 18.755 15.4433C18.6036 15.4433 18.5027 15.4937 18.4018 15.5441C18.4018 15.5441 18.3514 15.5946 17.6451 16.4018C17.5946 16.5027 17.4937 16.5531 17.3928 16.5531H17.3423C17.2919 16.5531 17.191 16.5027 17.1405 16.4523L16.8883 16.3513C16.3333 16.0991 15.8289 15.7964 15.4253 15.3928C15.3243 15.2919 15.173 15.191 15.0721 15.0901C14.7189 14.7369 14.3658 14.3333 14.1135 13.8793L14.0631 13.7784C14.0126 13.7279 14.0126 13.6775 13.9622 13.5766C13.9622 13.4757 13.9622 13.3748 14.0126 13.3243C14.0126 13.3243 14.2144 13.0721 14.3658 12.9207C14.4667 12.8198 14.5171 12.6685 14.6181 12.5676C14.7189 12.4162 14.7694 12.2144 14.7189 12.0631C14.6685 11.8108 14.0631 10.4487 13.9117 10.1459C13.8108 9.9946 13.7099 9.94413 13.5586 9.89367H13.4072C13.3063 9.89367 13.155 9.89367 13.0036 9.89367C12.9027 9.89367 12.8018 9.94413 12.7009 9.94413L12.6505 9.9946C12.5495 10.0451 12.4487 10.1459 12.3477 10.1964C12.2469 10.2973 12.1964 10.3982 12.0955 10.4991C11.7423 10.9531 11.5405 11.5081 11.5405 12.0631C11.5405 12.4667 11.6415 12.8703 11.7928 13.2234L11.8433 13.3748C12.2973 14.3333 12.9027 15.191 13.7099 15.9477L13.9117 16.1495C14.0631 16.3009 14.2144 16.4018 14.3153 16.5531C15.3748 17.4613 16.5856 18.1171 17.9477 18.4703C18.0991 18.5207 18.3009 18.5207 18.4523 18.5712C18.6036 18.5712 18.8054 18.5712 18.9568 18.5712C19.209 18.5712 19.5117 18.4703 19.7135 18.3694C19.8649 18.2685 19.9658 18.2685 20.0667 18.1676L20.1676 18.0667C20.2685 17.9657 20.3694 17.9153 20.4703 17.8144C20.5712 17.7135 20.6721 17.6126 20.7225 17.5117C20.8235 17.3099 20.8739 17.0577 20.9243 16.8054C20.9243 16.7045 20.9243 16.5531 20.9243 16.4523C20.9243 16.4523 20.8739 16.4018 20.773 16.3513Z" fill="white"/>
</svg>

